# xmcd CD database file
#
# Track frame offsets:
#	150
#	15821
#	40524
#	74095
#	84193
#	98522
#	136097
#	161799
#	183942
#	192105
#	221049
#	262004
#
# Disc length: 3560 seconds
#
# Revision: 0
# Processed by: cddbd v1.5.2PL0 Copyright (c) Steve Scherf et al.
# Submitted via: CDex 1.70beta2
#
DISCID=950de60c
DTITLE=Brandon Ross - Puppet
DYEAR=2006
DGENRE=Jazz
TTITLE0=If You Come To Me
TTITLE1=May As Well Know
TTITLE2=Aloeifa
TTITLE3=South
TTITLE4=O. People
TTITLE5=Marigolds 4 LNOR
TTITLE6=Other Side Blues
TTITLE7=Cycle
TTITLE8=Puppet
TTITLE9=Love From Above
TTITLE10=Ordinary Before You
TTITLE11=News (Of You)
EXTD=YEAR: 2006
EXTT0=
EXTT1=
EXTT2=
EXTT3=
EXTT4=
EXTT5=
EXTT6=
EXTT7=
EXTT8=
EXTT9=
EXTT10=
EXTT11=
PLAYORDER=
